<svg width="40" height="40" viewBox="0 0 40 40" fill="none" xmlns="http://www.w3.org/2000/svg">
  <!-- Pizza slice with golden crust -->
  <path d="M20 2L38 20L20 38L2 20L20 2Z" fill="#D4AF37" stroke="#B8860B" stroke-width="1"/>
  
  <!-- Cheese base -->
  <path d="M20 6L34 20L20 34L6 20L20 6Z" fill="#FFD700" stroke="#FFA500" stroke-width="0.5"/>
  
  <!-- Pepperoni circles -->
  <circle cx="20" cy="16" r="3" fill="#DC143C"/>
  <circle cx="26" cy="22" r="2.5" fill="#DC143C"/>
  <circle cx="14" cy="24" r="2" fill="#DC143C"/>
  
  <!-- Basil leaves -->
  <ellipse cx="18" cy="12" rx="1.5" ry="3" fill="#228B22" transform="rotate(-30 18 12)"/>
  <ellipse cx="22" cy="14" rx="1.5" ry="3" fill="#228B22" transform="rotate(30 22 14)"/>
  <ellipse cx="24" cy="18" rx="1.5" ry="3" fill="#228B22" transform="rotate(-45 24 18)"/>
  
  <!-- Cheese drips -->
  <path d="M16 32C16 32 18 30 20 32C22 30 24 32 24 32" stroke="#FFD700" stroke-width="1.5" fill="none"/>
</svg>
